<mxfile host="app.diagrams.net" modified="2023-09-09T22:38:05.031Z" agent="Mozilla/5.0 (Windows NT 10.0; Win64; x64; rv:109.0) Gecko/20100101 Firefox/117.0" etag="vEICtPoSxwD0B3mgrKtN" version="21.7.4" type="device">
  <diagram id="C5RBs43oDa-KdzZeNtuy" name="Page-1">
    <mxGraphModel dx="1434" dy="792" grid="1" gridSize="10" guides="1" tooltips="1" connect="1" arrows="1" fold="1" page="1" pageScale="1" pageWidth="827" pageHeight="1169" math="0" shadow="0">
      <root>
        <mxCell id="WIyWlLk6GJQsqaUBKTNV-0" />
        <mxCell id="WIyWlLk6GJQsqaUBKTNV-1" parent="WIyWlLk6GJQsqaUBKTNV-0" />
        <mxCell id="fi5mcvOh6QvALd_TEp1a-2" style="edgeStyle=orthogonalEdgeStyle;rounded=0;orthogonalLoop=1;jettySize=auto;html=1;entryX=0;entryY=0.5;entryDx=0;entryDy=0;" edge="1" parent="WIyWlLk6GJQsqaUBKTNV-1" source="fi5mcvOh6QvALd_TEp1a-0" target="fi5mcvOh6QvALd_TEp1a-1">
          <mxGeometry relative="1" as="geometry" />
        </mxCell>
        <mxCell id="fi5mcvOh6QvALd_TEp1a-0" value="" style="strokeWidth=2;html=1;shape=mxgraph.flowchart.start_2;whiteSpace=wrap;" vertex="1" parent="WIyWlLk6GJQsqaUBKTNV-1">
          <mxGeometry x="80" y="80" width="30" height="30" as="geometry" />
        </mxCell>
        <mxCell id="fi5mcvOh6QvALd_TEp1a-4" style="edgeStyle=orthogonalEdgeStyle;rounded=0;orthogonalLoop=1;jettySize=auto;html=1;entryX=0;entryY=0.5;entryDx=0;entryDy=0;" edge="1" parent="WIyWlLk6GJQsqaUBKTNV-1" source="fi5mcvOh6QvALd_TEp1a-1" target="fi5mcvOh6QvALd_TEp1a-3">
          <mxGeometry relative="1" as="geometry" />
        </mxCell>
        <mxCell id="fi5mcvOh6QvALd_TEp1a-1" value="Presionar botón &quot;Registrar&quot; en la ventana de inicio" style="rounded=1;whiteSpace=wrap;html=1;" vertex="1" parent="WIyWlLk6GJQsqaUBKTNV-1">
          <mxGeometry x="160" y="52.5" width="120" height="85" as="geometry" />
        </mxCell>
        <mxCell id="fi5mcvOh6QvALd_TEp1a-6" style="edgeStyle=orthogonalEdgeStyle;rounded=0;orthogonalLoop=1;jettySize=auto;html=1;entryX=0.5;entryY=0;entryDx=0;entryDy=0;" edge="1" parent="WIyWlLk6GJQsqaUBKTNV-1" source="fi5mcvOh6QvALd_TEp1a-3" target="fi5mcvOh6QvALd_TEp1a-5">
          <mxGeometry relative="1" as="geometry" />
        </mxCell>
        <mxCell id="fi5mcvOh6QvALd_TEp1a-3" value="Se despliega la ventana &quot;Registro de usuario&quot;" style="rounded=1;whiteSpace=wrap;html=1;" vertex="1" parent="WIyWlLk6GJQsqaUBKTNV-1">
          <mxGeometry x="330" y="52.5" width="120" height="85" as="geometry" />
        </mxCell>
        <mxCell id="fi5mcvOh6QvALd_TEp1a-8" style="edgeStyle=orthogonalEdgeStyle;rounded=0;orthogonalLoop=1;jettySize=auto;html=1;entryX=0.5;entryY=0;entryDx=0;entryDy=0;" edge="1" parent="WIyWlLk6GJQsqaUBKTNV-1" source="fi5mcvOh6QvALd_TEp1a-5" target="fi5mcvOh6QvALd_TEp1a-7">
          <mxGeometry relative="1" as="geometry" />
        </mxCell>
        <mxCell id="fi5mcvOh6QvALd_TEp1a-5" value="Se rellenan los campos para el registro" style="rounded=1;whiteSpace=wrap;html=1;" vertex="1" parent="WIyWlLk6GJQsqaUBKTNV-1">
          <mxGeometry x="330" y="180" width="120" height="85" as="geometry" />
        </mxCell>
        <mxCell id="fi5mcvOh6QvALd_TEp1a-10" style="edgeStyle=orthogonalEdgeStyle;rounded=0;orthogonalLoop=1;jettySize=auto;html=1;entryX=0.5;entryY=0;entryDx=0;entryDy=0;" edge="1" parent="WIyWlLk6GJQsqaUBKTNV-1" source="fi5mcvOh6QvALd_TEp1a-7" target="fi5mcvOh6QvALd_TEp1a-9">
          <mxGeometry relative="1" as="geometry" />
        </mxCell>
        <mxCell id="fi5mcvOh6QvALd_TEp1a-7" value="Se presiona la opción &quot;Registrar&quot;" style="rounded=1;whiteSpace=wrap;html=1;" vertex="1" parent="WIyWlLk6GJQsqaUBKTNV-1">
          <mxGeometry x="330" y="310" width="120" height="85" as="geometry" />
        </mxCell>
        <mxCell id="fi5mcvOh6QvALd_TEp1a-13" style="edgeStyle=orthogonalEdgeStyle;rounded=0;orthogonalLoop=1;jettySize=auto;html=1;entryX=0;entryY=0.5;entryDx=0;entryDy=0;" edge="1" parent="WIyWlLk6GJQsqaUBKTNV-1" source="fi5mcvOh6QvALd_TEp1a-9" target="fi5mcvOh6QvALd_TEp1a-11">
          <mxGeometry relative="1" as="geometry" />
        </mxCell>
        <mxCell id="fi5mcvOh6QvALd_TEp1a-15" value="No" style="edgeLabel;html=1;align=center;verticalAlign=middle;resizable=0;points=[];" vertex="1" connectable="0" parent="fi5mcvOh6QvALd_TEp1a-13">
          <mxGeometry x="-0.12" relative="1" as="geometry">
            <mxPoint as="offset" />
          </mxGeometry>
        </mxCell>
        <mxCell id="fi5mcvOh6QvALd_TEp1a-14" style="edgeStyle=orthogonalEdgeStyle;rounded=0;orthogonalLoop=1;jettySize=auto;html=1;entryX=0.5;entryY=0;entryDx=0;entryDy=0;" edge="1" parent="WIyWlLk6GJQsqaUBKTNV-1" source="fi5mcvOh6QvALd_TEp1a-9" target="fi5mcvOh6QvALd_TEp1a-12">
          <mxGeometry relative="1" as="geometry" />
        </mxCell>
        <mxCell id="fi5mcvOh6QvALd_TEp1a-16" value="Si" style="edgeLabel;html=1;align=center;verticalAlign=middle;resizable=0;points=[];" vertex="1" connectable="0" parent="fi5mcvOh6QvALd_TEp1a-14">
          <mxGeometry x="-0.1333" y="-1" relative="1" as="geometry">
            <mxPoint as="offset" />
          </mxGeometry>
        </mxCell>
        <mxCell id="fi5mcvOh6QvALd_TEp1a-9" value="¿Existe cuenta registrada a ese email?" style="rhombus;whiteSpace=wrap;html=1;" vertex="1" parent="WIyWlLk6GJQsqaUBKTNV-1">
          <mxGeometry x="335" y="440" width="110" height="110" as="geometry" />
        </mxCell>
        <mxCell id="fi5mcvOh6QvALd_TEp1a-18" style="edgeStyle=orthogonalEdgeStyle;rounded=0;orthogonalLoop=1;jettySize=auto;html=1;entryX=0;entryY=0.5;entryDx=0;entryDy=0;" edge="1" parent="WIyWlLk6GJQsqaUBKTNV-1" source="fi5mcvOh6QvALd_TEp1a-11" target="fi5mcvOh6QvALd_TEp1a-17">
          <mxGeometry relative="1" as="geometry" />
        </mxCell>
        <mxCell id="fi5mcvOh6QvALd_TEp1a-11" value="Se crea cuenta del usuario" style="rounded=1;whiteSpace=wrap;html=1;" vertex="1" parent="WIyWlLk6GJQsqaUBKTNV-1">
          <mxGeometry x="520" y="452.5" width="120" height="85" as="geometry" />
        </mxCell>
        <mxCell id="fi5mcvOh6QvALd_TEp1a-20" style="edgeStyle=orthogonalEdgeStyle;rounded=0;orthogonalLoop=1;jettySize=auto;html=1;entryX=0;entryY=0.5;entryDx=0;entryDy=0;" edge="1" parent="WIyWlLk6GJQsqaUBKTNV-1" source="fi5mcvOh6QvALd_TEp1a-12" target="fi5mcvOh6QvALd_TEp1a-19">
          <mxGeometry relative="1" as="geometry" />
        </mxCell>
        <mxCell id="fi5mcvOh6QvALd_TEp1a-12" value="Se envía mensaje &quot;Ya hay una cuenta registrada a este email&quot;" style="rounded=1;whiteSpace=wrap;html=1;" vertex="1" parent="WIyWlLk6GJQsqaUBKTNV-1">
          <mxGeometry x="330" y="610" width="120" height="85" as="geometry" />
        </mxCell>
        <mxCell id="fi5mcvOh6QvALd_TEp1a-17" value="" style="ellipse;shape=doubleEllipse;whiteSpace=wrap;html=1;aspect=fixed;perimeterSpacing=0;strokeWidth=2;" vertex="1" parent="WIyWlLk6GJQsqaUBKTNV-1">
          <mxGeometry x="700" y="475" width="40" height="40" as="geometry" />
        </mxCell>
        <mxCell id="fi5mcvOh6QvALd_TEp1a-19" value="" style="ellipse;shape=doubleEllipse;whiteSpace=wrap;html=1;aspect=fixed;perimeterSpacing=0;strokeWidth=2;" vertex="1" parent="WIyWlLk6GJQsqaUBKTNV-1">
          <mxGeometry x="520" y="632.5" width="40" height="40" as="geometry" />
        </mxCell>
      </root>
    </mxGraphModel>
  </diagram>
</mxfile>
